<svg preserveAspectRatio="none" overflow="visible" style="display: block;" width="12" height="12.6822" viewBox="0 0 12 12.6822" fill="none" xmlns="http://www.w3.org/2000/svg">
<path id="Vector" d="M5.99979 1.72136e-07C6.78414 -0.00024005 7.54792 0.250954 8.17902 0.716713C8.81012 1.18247 9.2753 1.83827 9.50628 2.58784C9.73726 3.33742 9.72189 4.1413 9.4624 4.88149C9.20292 5.62168 8.713 6.25921 8.06455 6.70049C9.19008 7.11331 10.1663 7.85353 10.8675 8.82589C11.5688 9.79825 11.963 10.9582 11.9993 12.1565C12.0027 12.223 11.9928 12.2895 11.9702 12.3522C11.9475 12.4148 11.9126 12.4723 11.8674 12.5212C11.8223 12.5702 11.7678 12.6096 11.7072 12.6372C11.6466 12.6648 11.5811 12.6801 11.5145 12.682C11.4479 12.684 11.3816 12.6726 11.3195 12.6486C11.2574 12.6246 11.2007 12.5884 11.1527 12.5422C11.1048 12.496 11.0665 12.4407 11.0402 12.3795C11.014 12.3183 11.0001 12.2525 10.9996 12.1859C10.9599 10.8863 10.4158 9.65336 9.48253 8.74819C8.54927 7.84302 7.30024 7.33679 6.00012 7.33679C4.7 7.33679 3.45097 7.84302 2.51771 8.74819C1.58445 9.65336 1.04031 10.8863 1.0006 12.1859C0.996617 12.3185 0.940102 12.4442 0.843485 12.5351C0.746868 12.6261 0.618063 12.675 0.485405 12.671C0.352748 12.6671 0.227105 12.6105 0.136116 12.5139C0.0451269 12.4173 -0.00375443 12.2885 0.000225291 12.1558C0.0367376 10.9577 0.430982 9.79784 1.13222 8.82561C1.83346 7.85339 2.8096 7.11326 3.93502 6.70049C3.28657 6.25921 2.79665 5.62168 2.53717 4.88149C2.27769 4.1413 2.26231 3.33742 2.49329 2.58784C2.72427 1.83827 3.18945 1.18247 3.82055 0.716713C4.45165 0.250954 5.21543 -0.00024005 5.99979 1.72136e-07ZM3.33213 3.66803C3.33213 4.37554 3.61318 5.05406 4.11347 5.55435C4.61375 6.05463 5.29228 6.33569 5.99979 6.33569C6.70729 6.33569 7.38582 6.05463 7.8861 5.55435C8.38639 5.05406 8.66744 4.37554 8.66744 3.66803C8.66744 2.96052 8.38639 2.28199 7.8861 1.78171C7.38582 1.28143 6.70729 1.00037 5.99979 1.00037C5.29228 1.00037 4.61375 1.28143 4.11347 1.78171C3.61318 2.28199 3.33213 2.96052 3.33213 3.66803Z" fill="#8A8078"/>
</svg>
